<?xml version="1.0" standalone="no"?>
<!DOCTYPE svg PUBLIC "-//W3C//DTD SVG 20010904//EN"
 "http://www.w3.org/TR/2001/REC-SVG-20010904/DTD/svg10.dtd">
<svg version="1.0" xmlns="http://www.w3.org/2000/svg"
 width="1024.000000pt" height="1024.000000pt" viewBox="0 0 1024.000000 1024.000000"
 preserveAspectRatio="xMidYMid meet">
<metadata>
Created by potrace 1.14, written by Peter Selinger 2001-2017
</metadata>
<g transform="translate(0.000000,1024.000000) scale(0.100000,-0.100000)"
fill="#000000" stroke="none">
<path d="M5788 9105 c-3 -3 -159 -18 -200 -19 -16 -1 -28 -3 -28 -6 0 -3 -12
-6 -28 -7 -28 -3 -67 -10 -67 -13 0 -1 -9 -3 -20 -4 -40 -6 -189 -48 -210 -59
-11 -6 -26 -12 -33 -13 -8 -1 -21 -6 -30 -10 -9 -4 -19 -8 -22 -9 -3 0 -23
-10 -46 -21 -22 -11 -47 -20 -55 -19 -8 2 -58 10 -111 19 -54 9 -104 16 -110
15 -7 -1 -24 1 -38 4 -14 4 -50 9 -80 12 -170 14 -232 18 -297 19 -40 1 -73 5
-73 9 0 5 -6 5 -12 1 -11 -7 -103 -9 -118 -4 -3 2 -9 2 -14 1 -41 -8 -106 -6
-106 3 0 7 -3 8 -8 1 -4 -6 -32 -11 -62 -12 -131 -4 -375 -25 -375 -33 0 -1
-20 -3 -45 -5 -25 -1 -61 -6 -80 -9 -98 -18 -146 -23 -153 -19 -4 3 -13 0 -20
-5 -7 -6 -28 -12 -47 -15 -39 -6 -267 -64 -290 -74 -8 -3 -23 -8 -33 -10 -18
-3 -193 -58 -227 -71 -8 -3 -17 -6 -20 -7 -15 -5 -47 -18 -65 -25 -11 -5 -60
-25 -110 -45 -136 -55 -440 -210 -505 -257 -13 -9 -27 -15 -32 -12 -4 3 -8 0
-8 -6 0 -6 -8 -14 -17 -18 -25 -10 -137 -85 -141 -94 -2 -5 -8 -8 -13 -8 -6 0
-15 -5 -22 -10 -7 -6 -36 -28 -64 -50 -29 -21 -59 -44 -67 -52 -7 -7 -24 -20
-37 -28 -12 -8 -39 -30 -59 -47 -21 -18 -42 -33 -48 -33 -6 0 -17 -6 -24 -13
-7 -7 -24 -18 -38 -24 -104 -50 -396 -247 -408 -275 -2 -4 -8 -8 -13 -8 -6 0
-20 -10 -33 -22 -13 -13 -45 -42 -72 -65 -54 -45 -174 -162 -174 -168 0 -2
-14 -18 -30 -35 -17 -17 -30 -36 -30 -42 0 -6 -3 -9 -6 -5 -7 7 -150 -184
-179 -241 -11 -20 -22 -39 -26 -42 -16 -14 -104 -215 -115 -262 -1 -5 -2 -9
-4 -10 -2 -4 -8 -27 -15 -63 -3 -16 -10 -50 -15 -75 -5 -25 -12 -68 -15 -95
-8 -55 -15 -71 -15 -34 -1 51 -19 -8 -24 -77 -3 -38 -6 -69 -7 -69 -6 0 -4
-224 3 -237 6 -12 5 -18 -2 -18 -6 0 -8 -5 -4 -11 4 -7 8 -25 10 -40 5 -40 19
-107 30 -141 3 -11 2 -23 -3 -27 -4 -3 -30 -35 -55 -71 -26 -36 -52 -70 -58
-77 -5 -7 -10 -15 -10 -17 0 -3 -20 -42 -44 -86 -25 -44 -43 -80 -40 -80 2 0
-7 -25 -21 -56 -22 -49 -42 -112 -61 -189 -2 -11 -7 -38 -10 -60 -3 -22 -8
-47 -11 -55 -16 -45 -21 -281 -8 -400 4 -41 8 -83 9 -92 0 -10 3 -18 7 -18 3
0 5 -11 4 -25 -2 -14 1 -27 6 -31 5 -3 7 -10 4 -15 -4 -5 -3 -15 2 -21 4 -7 9
-22 10 -33 10 -69 118 -340 151 -377 8 -10 12 -18 8 -18 -4 0 -2 -6 4 -12 5
-7 31 -45 57 -85 64 -96 95 -134 178 -217 39 -39 77 -84 85 -101 18 -37 81
-105 97 -105 6 0 13 -4 15 -9 1 -6 55 -44 118 -85 63 -41 120 -79 126 -83 13
-10 40 -26 123 -71 36 -20 68 -40 69 -44 2 -4 9 -8 15 -8 6 0 43 -15 82 -34
80 -39 107 -50 118 -48 4 1 7 -3 7 -10 0 -6 3 -9 6 -5 3 3 29 -3 59 -13 29
-10 68 -20 86 -23 19 -3 41 -8 49 -11 8 -3 47 -8 85 -10 39 -3 72 -5 75 -6 10
-3 126 -2 138 2 9 2 25 -31 47 -97 65 -197 169 -348 400 -581 141 -143 239
-209 426 -290 46 -20 89 -37 94 -38 69 -17 85 -17 100 -3 14 14 20 14 58 1 23
-9 49 -17 57 -19 8 -2 44 -11 80 -20 36 -9 76 -19 90 -21 14 -2 36 -7 50 -10
26 -7 38 -9 125 -20 67 -9 460 -10 510 -1 22 4 54 9 70 11 17 3 82 14 145 25
166 30 234 40 310 46 19 2 35 4 35 5 0 1 25 3 56 4 30 2 61 6 67 10 7 4 12 2
12 -4 0 -6 5 -8 12 -4 17 11 118 11 118 0 0 -5 6 -4 13 1 13 10 33 10 209 -1
123 -8 144 -11 218 -32 30 -9 61 -17 68 -18 13 -2 22 -12 105 -110 60 -71 259
-266 271 -266 5 0 45 -33 77 -63 10 -9 23 -17 28 -17 5 0 11 -4 13 -9 2 -4 48
-38 103 -74 55 -37 105 -70 110 -74 64 -49 397 -204 555 -258 3 -1 12 -4 20
-8 47 -19 211 -68 243 -74 20 -3 37 -9 37 -13 0 -5 8 -7 18 -5 9 1 22 0 27 -4
6 -3 15 -6 20 -8 6 -1 21 -4 35 -7 24 -6 42 -10 93 -21 52 -12 244 -43 267
-43 8 -1 49 -5 90 -10 81 -10 397 -8 470 3 25 4 54 8 65 9 11 2 27 6 35 9 8 3
40 11 70 17 143 31 334 129 456 235 6 6 31 26 55 45 24 19 65 56 91 81 27 25
48 44 48 43 0 -2 25 22 55 53 49 50 74 78 171 189 21 24 31 37 85 113 51 71
144 230 154 261 1 3 14 32 29 65 15 33 29 65 30 70 1 6 6 17 11 25 5 8 10 21
11 30 1 8 8 39 16 69 11 39 20 55 34 57 10 2 38 6 62 9 52 6 188 42 214 56 10
5 18 7 18 3 0 -4 8 0 18 9 10 10 22 14 26 10 4 -4 10 -3 14 2 4 6 30 21 57 35
28 14 52 27 55 30 3 3 25 19 50 35 67 45 199 181 252 260 66 99 154 274 164
325 0 3 6 19 13 35 7 17 14 37 16 45 2 8 13 53 25 100 32 124 31 121 35 165 2
22 6 51 9 65 7 30 14 83 25 205 9 105 6 485 -5 600 -4 44 -8 97 -9 118 0 20
-3 37 -7 37 -3 0 -5 8 -3 18 1 9 0 21 -3 26 -3 5 -7 26 -8 45 -1 20 -5 48 -8
64 -3 15 -8 39 -11 55 -3 15 -8 38 -11 52 -10 42 -16 74 -18 90 -1 9 -5 20 -9
26 -3 6 -9 25 -12 44 -6 33 -78 258 -95 295 -5 11 -23 52 -41 90 -18 39 -32
73 -31 78 1 4 -3 7 -10 7 -6 0 -9 3 -5 6 3 3 -8 27 -24 54 -16 26 -29 52 -29
59 0 6 -4 11 -10 11 -5 0 -10 5 -10 12 0 6 -12 26 -26 45 -26 34 -29 49 -38
173 -3 36 -8 81 -12 100 -3 19 -7 40 -8 47 -1 7 -5 15 -8 19 -4 3 -4 12 -1 20
3 8 0 14 -7 14 -6 0 -9 4 -6 9 6 9 -17 71 -59 166 -13 28 -31 82 -40 120 -30
123 -90 310 -136 420 -7 17 -12 33 -11 38 1 4 -3 7 -10 7 -6 0 -9 3 -6 6 14
13 -197 392 -223 402 -5 2 -9 8 -9 14 0 5 -17 30 -39 56 -21 26 -53 76 -72
111 -35 67 -178 222 -236 256 -18 11 -33 23 -33 27 0 4 -5 8 -10 8 -6 0 -28
11 -49 24 -21 14 -42 22 -45 19 -3 -4 -6 -1 -6 5 0 7 -8 12 -18 12 -10 0 -22
4 -28 8 -5 5 -29 14 -54 21 -25 8 -58 17 -74 22 -16 5 -39 9 -51 9 -17 0 -29
13 -49 53 -92 180 -210 320 -382 455 -23 17 -44 32 -47 32 -3 0 -26 14 -50 30
-25 17 -50 30 -56 30 -6 0 -11 4 -11 9 0 5 -17 16 -37 25 -21 9 -57 27 -80 40
-22 14 -44 22 -47 19 -3 -4 -6 -1 -6 6 0 7 -4 9 -10 6 -5 -3 -10 -1 -10 4 0 6
-5 11 -11 11 -12 0 -131 58 -139 68 -3 4 -14 12 -25 18 -11 6 -42 23 -70 39
-27 15 -51 27 -53 26 -1 -1 -19 6 -39 14 -44 19 -126 42 -170 50 -83 13 -97
17 -117 28 -11 6 -23 12 -26 12 -5 2 -51 20 -80 32 -8 3 -18 5 -22 5 -5 -1 -8
3 -8 9 0 6 -7 9 -15 6 -8 -4 -17 -2 -20 3 -4 6 -15 10 -26 10 -10 0 -19 5 -19
10 0 6 -6 10 -13 10 -8 0 -40 9 -73 20 -32 11 -66 22 -75 24 -9 3 -47 13 -85
24 -114 33 -284 70 -359 77 -16 2 -30 4 -30 5 0 13 -493 37 -507 25z"/>
</g>
</svg>
